<?xml version="1.0" encoding="utf-8"?>
<!-- Generator: Adobe Illustrator 19.0.0, SVG Export Plug-In . SVG Version: 6.00 Build 0)  -->
<svg version="1.1" id="Layer_1" xmlns="http://www.w3.org/2000/svg" xmlns:xlink="http://www.w3.org/1999/xlink" x="0px" y="0px"
	 viewBox="0 0 100 106.2" style="enable-background:new 0 0 100 106.2;" xml:space="preserve">
<style type="text/css">
	.st0{fill:#000;}
</style>
<g id="XMLID_27_">
	<path id="XMLID_30_" class="st0" d="M35.3,83.5c-4.2,0-7.6,3.4-7.6,7.6c0,0.3,0,0.6,0,0.9c-1.7,1.4-3.9,2.3-6.3,2.3
		c-5.3,0.1-9.7-4.5-9.7-9.8V21.7c0-5.2,4-9.6,9.2-9.9c2.1-0.1,4.1,0.5,5.8,1.6l1.3,1.5l18.3,20.2l18.1,20c0.2,4,3.5,7.3,7.6,7.3
		c4.2,0,7.6-3.4,7.6-7.6c0-3.8-2.8-7-6.5-7.5L32.7,3.9C29.3,1.4,25.1,0,20.7,0C9.9,0,1.1,8.2,0.1,18.8c0,0-0.1,66.5-0.1,66.8
		c0,11.4,9.3,20.7,20.7,20.7c6.5,0,12.4-3,16.1-7.8c3.5-0.7,6.1-3.8,6.1-7.4C42.9,86.9,39.5,83.5,35.3,83.5z M35.3,95.8
		c-2.6,0-4.7-2.1-4.7-4.7c0-2.6,2.1-4.7,4.7-4.7c2.6,0,4.7,2.1,4.7,4.7C40,93.6,37.9,95.8,35.3,95.8z"/>
	<path id="XMLID_39_" class="st0" d="M79.3,0c-6.7,0-12.6,3.2-16.4,8.1c-3.5,0.7-6.1,3.8-6.1,7.4c0,4.2,3.4,7.6,7.6,7.6
		s7.6-3.4,7.6-7.6c0-0.3,0-0.6-0.1-0.9c1.7-1.5,4-2.5,6.6-2.6c5.3-0.1,9.7,4.5,9.7,9.8v62.7c0,5.2-4,9.6-9.2,9.9
		c-2.1,0.1-4.1-0.5-5.8-1.6L72,91.3L53.7,71.1L35.3,50.8c0-0.1,0-0.3,0-0.4c0-4.2-3.4-7.6-7.6-7.6c-4.2,0-7.6,3.4-7.6,7.6
		c0,3.6,2.5,6.6,5.8,7.4c0.2,0.2,0.3,0.5,0.5,0.7l40.9,43.9c3.4,2.4,7.5,3.8,12,3.8c10.8,0,19.6-8.2,20.6-18.7
		c0,0,0.1-66.5,0.1-66.8C100,9.3,90.7,0,79.3,0z M64.4,20.2c-2.6,0-4.7-2.1-4.7-4.7c0-2.6,2.1-4.7,4.7-4.7c2.6,0,4.7,2.1,4.7,4.7
		C69.1,18.1,67,20.2,64.4,20.2z"/>
</g>
</svg>
