<?xml version="1.0" encoding="utf-8"?>
<!-- Generator: Adobe Illustrator 19.0.0, SVG Export Plug-In . SVG Version: 6.00 Build 0)  -->
<svg version="1.1" id="Layer_1" xmlns="http://www.w3.org/2000/svg" xmlns:xlink="http://www.w3.org/1999/xlink" x="0px" y="0px"
	 viewBox="-95 343.8 420.3 106.2" style="enable-background:new -95 343.8 420.3 106.2;" xml:space="preserve">
<style type="text/css">
	.st0{fill:#F15E23;}
</style>
<g>
	<path d="M74.3,376.7c-1.9-2.3-4.5-4.1-7.7-5.4c-3.3-1.3-7.3-1.9-12.2-1.9c-4.8,0-9.3,0.3-13.7,1c-4.4,0.7-7.9,1.4-10.7,2.2v55.5
		h16.2v-44.3c1-0.2,2.2-0.3,3.5-0.4c1.3-0.1,2.5-0.2,3.7-0.2c3.7,0,6.3,1.1,7.7,3.3c1.4,2.2,2.1,5.9,2.1,11.1v30.5h16.3v-32.4
		c0-3.9-0.4-7.5-1.2-10.7S76.2,379,74.3,376.7z"/>
	<path d="M123.9,413.6c-2.8,0.5-5.6,0.8-8.5,0.8c-4.5,0-8.1-1-10.8-2.9c-2.7-1.9-4.2-4.4-4.6-7.7h35.9c0.1-0.8,0.1-1.8,0.2-2.9
		c0.1-1.1,0.1-2.1,0.1-3c0-9.3-2.3-16.5-6.9-21.3c-4.6-4.9-10.9-7.3-18.8-7.3c-3.4,0-6.7,0.6-9.9,1.9c-3.2,1.3-6,3.1-8.5,5.6
		s-4.5,5.6-6,9.3c-1.5,3.7-2.3,8.1-2.3,13c0,4.1,0.6,8,1.7,11.3c1.2,3.6,3,6.6,5.4,9.2c2.4,2.6,5.5,4.6,9.2,6.1s8.1,2.2,13.1,2.2
		c1.9,0,3.9-0.1,5.9-0.3c2-0.2,3.9-0.5,5.6-0.8c1.7-0.3,3.3-0.7,4.7-1.1c1.4-0.5,2.6-0.9,3.4-1.3l-2.1-12.8
		C129,412.4,126.7,413.1,123.9,413.6z M100.9,389.1c0.5-1.3,1.2-2.4,2-3.4c0.9-1,1.9-1.8,3.2-2.4c1.3-0.6,2.8-0.9,4.6-0.9
		c1.8,0,3.4,0.4,4.6,1c1.3,0.6,2.3,1.4,3.1,2.4c0.8,1,1.4,2.1,1.8,3.4c0.4,1.3,0.6,2.6,0.7,3.9h-21
		C100.1,391.7,100.4,390.4,100.9,389.1z"/>
	<path d="M192,369.5h-17.2L163.1,386l-11.3-16.5h-18c3.3,4.6,16.8,23.9,20.5,29.1c-2.1,2.3-20.1,27.8-21,29.6h16.9
		c0.8-1.5,11.4-16.5,12.5-17.5c1.1,1,11.7,16.4,12.3,17.5h17.8c-2.2-4.2-16.5-24.8-21.2-30.2L192,369.5z"/>
	<path d="M230,412.6c-1.5,0.6-3.2,1.1-5.1,1.4c-1.8,0.3-3.6,0.5-5.4,0.5c-3.7,0-6.1-1.1-7.3-3.1s-1.8-4.8-1.8-8.2v-20.3H230v-13.6
		h-19.6v-20.5l-16.4,0.1h0v54.6c0,3.7,0.3,7.1,1,10.2c0.7,3,1.9,5.6,3.7,7.8c1.7,2.1,4.1,3.8,7,5c3,1.2,6.6,1.8,11.1,1.8
		c3.5,0,6.5-0.3,8.9-0.9c2.4-0.6,4.6-1.3,6.6-2.1L230,412.6z"/>
</g>
<g>
	<rect x="251.4" y="369.4" class="st0" width="16.6" height="58.7"/>
	<path class="st0" d="M259.6,346.3c-2.7,0-5,0.9-7,2.6c-2,1.8-3,4.1-3,7.2c0,3.1,1,5.5,3,7.2s4.3,2.6,7,2.6s5-0.9,7-2.6s3-4.1,3-7.2
		c0-3-1-5.4-3-7.2C264.6,347.2,262.3,346.3,259.6,346.3z"/>
	<path class="st0" d="M323.3,386.7c-1.3-3.7-3.3-6.8-5.8-9.4c-2.5-2.6-5.6-4.6-9.3-6c-3.7-1.4-7.9-2.1-12.6-2.1
		c-1.9,0-4,0.1-6.1,0.3s-4.2,0.4-6.3,0.7c-2.1,0.3-4,0.6-5.9,1c-1.9,0.4-3.6,0.8-5,1.2v75.1h16.2V426c1.8,0.8,3.6,1.4,5.6,1.8
		c2,0.5,4.1,0.7,6.3,0.7c4,0,7.6-0.8,10.7-2.2c3.1-1.5,5.7-3.5,7.8-6.1c2.1-2.6,3.7-5.7,4.8-9.3c1.1-3.6,1.6-7.6,1.6-12
		C325.3,394.4,324.6,390.3,323.3,386.7z M297.3,415c-1.6,0-3.3-0.3-4.9-0.7c-1.7-0.4-3-0.9-4-1.6v-29.2c0.8-0.2,1.8-0.3,3-0.4
		c1.2-0.1,2.6-0.2,4-0.2c4.4,0,7.8,1.5,10,4.5c2.3,3,3.4,7,3.4,12C308.8,409.7,304.9,414.9,297.3,415z"/>
	<path class="st0" d="M-59.7,427.3c-4.2,0-7.6,3.4-7.6,7.6c0,0.3,0,0.6,0,0.9c-1.7,1.4-3.9,2.3-6.3,2.3c-5.3,0.1-9.7-4.5-9.7-9.8
		v-62.8c0-5.2,4-9.6,9.2-9.9c2.1-0.1,4.1,0.5,5.8,1.6l1.3,1.5l18.3,20.2l18.1,20c0.2,4,3.5,7.3,7.6,7.3c4.2,0,7.6-3.4,7.6-7.6
		c0-3.8-2.8-7-6.5-7.5l-40.4-43.4c-3.4-2.5-7.6-3.9-12-3.9c-10.8,0-19.6,8.2-20.6,18.8c0,0-0.1,66.5-0.1,66.8
		c0,11.4,9.3,20.7,20.7,20.7c6.5,0,12.4-3,16.1-7.8c3.5-0.7,6.1-3.8,6.1-7.4C-52.1,430.7-55.5,427.3-59.7,427.3z M-59.7,439.6
		c-2.6,0-4.7-2.1-4.7-4.7c0-2.6,2.1-4.7,4.7-4.7c2.6,0,4.7,2.1,4.7,4.7C-55,437.4-57.1,439.6-59.7,439.6z"/>
	<path class="st0" d="M-15.7,343.8c-6.7,0-12.6,3.2-16.4,8.1c-3.5,0.7-6.1,3.8-6.1,7.4c0,4.2,3.4,7.6,7.6,7.6c4.2,0,7.6-3.4,7.6-7.6
		c0-0.3,0-0.6-0.1-0.9c1.7-1.5,4-2.5,6.6-2.6c5.3-0.1,9.7,4.5,9.7,9.8v62.7c0,5.2-4,9.6-9.2,9.9c-2.1,0.1-4.1-0.5-5.8-1.6l-1.2-1.5
		l-18.3-20.2l-18.4-20.3c0-0.1,0-0.3,0-0.4c0-4.2-3.4-7.6-7.6-7.6s-7.6,3.4-7.6,7.6c0,3.6,2.5,6.6,5.8,7.4c0.2,0.2,0.3,0.5,0.5,0.7
		l40.9,43.9c3.4,2.4,7.5,3.8,12,3.8c10.8,0,19.6-8.2,20.6-18.7c0,0,0.1-66.5,0.1-66.8C5,353.1-4.3,343.8-15.7,343.8z M-30.6,364
		c-2.6,0-4.7-2.1-4.7-4.7c0-2.6,2.1-4.7,4.7-4.7c2.6,0,4.7,2.1,4.7,4.7C-25.9,361.9-28,364-30.6,364z"/>
</g>
</svg>
