<svg width="179" height="24" xmlns="http://www.w3.org/2000/svg"><g fill="none" fill-rule="evenodd"><g fill="#666"><path d="M49.7 6a21.3 21.3 0 0 0-2.2-.4h-1.4c-.8 0-1.6.1-2.3.4A5 5 0 0 0 42 7c-.5.6-1 1.2-1.2 2-.4.7-.5 1.6-.5 2.6 0 .9.1 1.7.4 2.4.2.7.6 1.4 1 2 .6.4 1.2.9 1.9 1.2.7.3 1.5.4 2.5.4a12.5 12.5 0 0 0 3.7-.5l-.3-1.2a7.9 7.9 0 0 1-2 .4H46a3.7 3.7 0 0 1-2.8-1.2c-.4-.4-.7-1-.9-1.5a7.1 7.1 0 0 1-.1-3.7 5 5 0 0 1 .7-1.6 3.5 3.5 0 0 1 3-1.6 9.5 9.5 0 0 1 2.4.3l1 .2.3-1.2zM52.7 10.6c.4-.5 1.1-.8 2-.8 1 0 1.6.3 2.1.8.6.6.8 1.5.8 2.6s-.2 2-.7 2.5c-.5.5-1.2.8-2 .8-1 0-1.6-.3-2.1-.8-.6-.6-.8-1.4-.8-2.6 0-1 .2-2 .7-2.5m-1.8 4.8a3.9 3.9 0 0 0 2.4 2.1l1.4.2c.5 0 1 0 1.5-.2a4 4 0 0 0 2.5-2.2c.3-.6.5-1.4.5-2.3 0-.9-.2-1.6-.5-2.2a3.9 3.9 0 0 0-2.5-2l-1.4-.3c-.4 0-1 .1-1.4.3a4 4 0 0 0-2.5 2.1 5 5 0 0 0-.5 2.2c0 1 .2 1.7.5 2.3M60.8 17.5h1.6V11a12.3 12.3 0 0 1 2-1l1-.2.8.1.4.5.1.7v6.4h1.6v-5.7c0-.6 0-1.1-.2-1.5 0-.4-.2-.8-.4-1-.2-.3-.5-.5-.8-.6a4 4 0 0 0-1.3-.2l-1 .2a10.2 10.2 0 0 0-2.2 1.1l-.2-1.1-1.4.2v8.6zM75.3 9a13.4 13.4 0 0 0-2.6-.5 4 4 0 0 0-2 .6l-.8.7-.2 1c0 .4 0 .8.3 1.1.2.4.5.7.9.9l1 .6 1.2.6c.3.1.6.3.8.6.3.2.4.5.4.8 0 .2 0 .3-.2.5l-.4.3-.5.2a3 3 0 0 1-.7 0h-1l-1.6-.3-.2 1.2a9 9 0 0 0 3.9.3c.4 0 .7-.2 1-.4.4-.2.7-.5.9-.8.2-.3.3-.7.3-1.2 0-.4-.1-.8-.3-1.1a3 3 0 0 0-.9-.9l-1-.6-1.2-.5-.8-.5a1 1 0 0 1-.4-.8c0-.3.2-.5.4-.7.3-.2.7-.3 1-.3a7.7 7.7 0 0 1 2.5.4l.2-1.3zM82.7 17.7l1.5-.1V8.7h-1.6v6.5a8.6 8.6 0 0 1-1.8 1l-.9.3c-.3 0-.5 0-.7-.2a.9.9 0 0 1-.3-.5l-.1-.7V8.7h-1.6v5.7c0 .6 0 1.1.2 1.6 0 .4.2.7.4 1l.7.5c.3.2.7.2 1.1.2l1-.1a5.6 5.6 0 0 0 2-1l.1 1.1zM86.3 17.5H88V4.3l-1.6.2zM90.6 6.1v2.4h-1.7v1.3h1.7v4.9c0 1 .1 1.7.5 2.1.3.4.9.7 1.7.7.3 0 .7 0 1-.2a4 4 0 0 0 1.1-.5l-.4-1c-.6.2-1.1.4-1.6.4h-.4a.6.6 0 0 1-.3-.4 15.5 15.5 0 0 1-.1-1.5V9.8h2.6V8.5h-2.6V6l-1.5.2zM101.2 15.4l-1.4.8a4 4 0 0 1-1.5.3c-.5 0-.8-.1-1-.3-.3-.2-.5-.5-.5-1 0-.4.2-.8.6-1 .4-.3 1-.5 1.9-.6h.5l.7-.1h.7v2zm.2 2.3l1.3-.1v-5.9-1.2l-.5-1-1-.7c-.4-.2-.9-.3-1.5-.3a12.8 12.8 0 0 0-3.3.4l.3 1.3a12.4 12.4 0 0 1 2.7-.4c.5 0 .8 0 1 .2.3 0 .4.2.6.5l.2.8v1a20.6 20.6 0 0 1-1.7.2l-1.5.2c-.5.1-1 .3-1.4.6l-1 .8a2 2 0 0 0-.3 1.2c0 .8.2 1.5.7 1.8.5.4 1.2.6 2 .6.6 0 1 0 1.6-.3l1.6-.8.2 1.1zM108.6 17.5h1.6v-4.7h2l3.6 4.7h1.8L114 13l-.3-.3-.2-.3c.5-.1.9-.3 1.2-.6.4-.3.7-.6.9-1 .2-.5.4-1.1.4-1.8s-.1-1.2-.3-1.7c-.2-.4-.5-.7-1-1-.3-.3-.8-.5-1.3-.6l-1.8-.1h-3v11.9zm5.8-7.4a2 2 0 0 1-1.3 1.2c-.3.2-.7.2-1.2.2h-1.7V6.8h1.5l1.2.1.9.3.5.8a3.5 3.5 0 0 1 0 2.1zM124.6 16a5.6 5.6 0 0 1-1.4.4h-1c-.5 0-1 0-1.4-.2a2.6 2.6 0 0 1-1.4-1.6 4 4 0 0 1-.1-1.1h5.8l.2-.8c0-.5 0-1-.2-1.6a4 4 0 0 0-.6-1.3 3.1 3.1 0 0 0-2.6-1.3c-.6 0-1.1.1-1.7.3-.5.2-1 .5-1.3 1-.4.3-.6.8-.9 1.4-.2.5-.3 1.2-.3 2s.1 1.5.4 2c.2.7.5 1.1.9 1.5l1.3.8 1.7.2a9.3 9.3 0 0 0 2.9-.4l-.3-1.2zm-5.3-3.7a2.8 2.8 0 0 1 .5-1.5l.7-.7c.4-.2.8-.3 1.3-.3.4 0 .8.1 1 .3.4.3.6.5.7.8l.2.8.1.6h-4.5zM126.8 17.5h1.6V11a10.2 10.2 0 0 1 1.8-1c.3-.2.6-.2.9-.2l.7.1.3.5.1.7v6.4h1.6V11l1.2-.9.7-.3.8-.1.6.1.4.5.1.7v6.4h1.6v-5.7a8 8 0 0 0-.2-1.5c0-.4-.2-.8-.4-1-.2-.3-.4-.5-.7-.6l-1.2-.2c-.5 0-1.1.2-1.6.5-.6.2-1 .5-1.6.9-.1-.5-.4-.8-.7-1-.4-.3-.8-.4-1.4-.4a3 3 0 0 0-1.1.2l-1 .5-1 .6-.1-1.1-1.4.2v8.6zM147.7 16a5.6 5.6 0 0 1-1.4.4h-1c-.5 0-1 0-1.4-.2a2.6 2.6 0 0 1-1.4-1.6 4 4 0 0 1-.1-1.1h5.8l.2-.8c0-.5 0-1-.2-1.6a4 4 0 0 0-.6-1.3 3.1 3.1 0 0 0-2.6-1.3c-.6 0-1.2.1-1.7.3-.5.2-1 .5-1.3 1-.4.3-.7.8-.9 1.4-.2.5-.3 1.2-.3 2s.1 1.5.3 2c.3.7.6 1.1 1 1.5l1.3.8 1.7.2a9.3 9.3 0 0 0 2.9-.4l-.3-1.2zm-5.3-3.7a2.8 2.8 0 0 1 .5-1.5l.7-.7c.4-.2.8-.3 1.3-.3.4 0 .8.1 1 .3.3.3.6.5.7.8l.2.8v.6h-4.4zm.7-6l.6.8 3.5-2-1-1-3 2.2zM155.6 15.6a6 6 0 0 1-1.6.7l-.8.2c-.4 0-.7-.1-1-.3l-.7-.8-.4-1a5.4 5.4 0 0 1 0-2.6l.5-1 1-.8a3 3 0 0 1 1.2-.2 6.6 6.6 0 0 1 1.8.2v5.6zm.1 2.1l1.4-.1V4.3l-1.5.1v4.4a9.9 9.9 0 0 0-1.8-.3l-1.4.3a4.2 4.2 0 0 0-2.6 2.2c-.2.5-.4 1.3-.4 2.2 0 1.4.3 2.6 1 3.4.6.7 1.5 1.1 2.6 1.1l1-.1a6.4 6.4 0 0 0 1.6-.8l.1 1zM159.3 17.5h1.5v-9l-1.5.2v8.8zm0-10.5c.2.2.4.3.7.3.3 0 .6 0 .8-.3.2-.2.3-.4.3-.7a1 1 0 0 0-.3-.7 1 1 0 0 0-.8-.3 1 1 0 0 0-1 1c0 .3.1.5.3.7zM164.7 10.6c.5-.5 1.2-.8 2-.8 1 0 1.7.3 2.2.8.5.6.8 1.5.8 2.6s-.3 2-.8 2.5-1.1.8-2 .8c-.9 0-1.6-.3-2.1-.8-.5-.6-.8-1.4-.8-2.6 0-1 .3-2 .7-2.5m-1.8 4.8a3.9 3.9 0 0 0 2.5 2.1l1.4.2c.4 0 1 0 1.4-.2a4 4 0 0 0 2.6-2.2c.3-.6.4-1.4.4-2.3 0-.9-.1-1.6-.4-2.2a4 4 0 0 0-1-1.3 4 4 0 0 0-1.5-.8l-1.4-.2-1.5.3a4 4 0 0 0-2.5 2.1 5 5 0 0 0-.4 2.2c0 1 .1 1.7.4 2.3M178 9a13.4 13.4 0 0 0-2.6-.5 4 4 0 0 0-2 .6l-.8.7c-.2.3-.2.6-.2 1s0 .8.3 1.1c.2.4.5.7.9.9l1 .6 1.2.6c.3.1.6.3.8.6.2.2.4.5.4.8 0 .2 0 .3-.2.5l-.4.3-.5.2a3 3 0 0 1-.7 0h-1.1l-1.5-.3-.2 1.2a9 9 0 0 0 3.9.3c.4 0 .7-.2 1-.4.4-.2.7-.5.9-.8.2-.3.3-.7.3-1.2 0-.4-.1-.8-.3-1.1a3 3 0 0 0-.9-.9l-1-.6-1.2-.5-.8-.5a1 1 0 0 1-.4-.8c0-.3.1-.5.4-.7.3-.2.7-.3 1-.3a7.7 7.7 0 0 1 2.5.4l.2-1.3z"/></g><path d="M10.4 14.4a4 4 0 0 1-4.2-4 4 4 0 0 1 4.2-4v-6C4.7.4 0 5 0 10.4s4.7 10 10.4 10v-6z" fill="#169998"/><path d="M18.4.4h-.2.2m10.2 10A10.2 10.2 0 0 0 18.2.4h-5.7v6h6a4 4 0 0 1 3.8 4 4 4 0 0 1-4.1 4h-4.6l6.8 9.4h7.2L24 18.7a9.8 9.8 0 0 0 4.7-8.3" fill="#3DC2C2"/></g></svg>
